STARTFONT 2.1
FONT -Monotype-Bembo-Bold-I-Normal--12-120-72-72-P-58-ISO8859-1
SIZE 12 72 72
FONTBOUNDINGBOX 16 15 -2 -3

STARTPROPERTIES 22
FOUNDRY "Monotype"
FAMILY_NAME "Bembo"
WEIGHT_NAME "Bold"
SLANT "I"
SETWIDTH_NAME "Normal"
ADD_STYLE_NAME ""
PIXEL_SIZE 12
POINT_SIZE 120
RESOLUTION_X 72
RESOLUTION_Y 72
SPACING "P"
AVERAGE_WIDTH 58
CHARSET_REGISTRY "ISO8859"
CHARSET_ENCODING "1"
FULL_NAME "Bembo-BoldItalic"
COPYRIGHT "Copyright (c) 1991 The Monotype Corporation plc."
WEIGHT 10
X_HEIGHT 5
QUAD_WIDTH 8
DEFAULT_CHAR 32
FONT_DESCENT 3
FONT_ASCENT 10
ENDPROPERTIES

CHARS 190

STARTCHAR space
ENCODING 32
SWIDTH 278 0
DWIDTH 3 0
BBX 1 1 0 0
BITMAP
00
ENDCHAR

STARTCHAR exclam
ENCODING 33
SWIDTH 323 0
DWIDTH 4 0
BBX 3 8 1 0
BITMAP
60
60
40
40
40
40
C0
C0
ENDCHAR

STARTCHAR quotedbl
ENCODING 34
SWIDTH 552 0
DWIDTH 7 0
BBX 5 4 2 4
BITMAP
D8
D0
90
90
ENDCHAR

STARTCHAR numbersign
ENCODING 35
SWIDTH 668 0
DWIDTH 8 0
BBX 7 8 1 0
BITMAP
36
26
FE
FE
FE
FE
CC
D8
ENDCHAR

STARTCHAR dollar
ENCODING 36
SWIDTH 469 0
DWIDTH 6 0
BBX 5 9 1 -1
BITMAP
38
68
68
20
30
30
B0
F0
40
ENDCHAR

STARTCHAR percent
ENCODING 37
SWIDTH 844 0
DWIDTH 10 0
BBX 9 8 1 0
BITMAP
6200
A600
A400
C900
0A80
1280
2300
6300
ENDCHAR

STARTCHAR ampersand
ENCODING 38
SWIDTH 729 0
DWIDTH 9 0
BBX 8 8 1 0
BITMAP
3C
64
60
77
CF
CA
C2
7C
ENDCHAR

STARTCHAR quoteright
ENCODING 39
SWIDTH 323 0
DWIDTH 4 0
BBX 2 4 1 4
BITMAP
40
40
40
80
ENDCHAR

STARTCHAR parenleft
ENCODING 40
SWIDTH 292 0
DWIDTH 4 0
BBX 4 11 1 -3
BITMAP
10
20
40
C0
C0
80
80
80
80
40
40
ENDCHAR

STARTCHAR parenright
ENCODING 41
SWIDTH 292 0
DWIDTH 4 0
BBX 4 11 0 -3
BITMAP
20
20
10
10
10
10
30
30
20
40
80
ENDCHAR

STARTCHAR asterisk
ENCODING 42
SWIDTH 521 0
DWIDTH 6 0
BBX 5 6 1 2
BITMAP
20
20
F8
70
D0
10
ENDCHAR

STARTCHAR plus
ENCODING 43
SWIDTH 667 0
DWIDTH 8 0
BBX 7 7 0 1
BITMAP
10
10
10
FE
10
10
10
ENDCHAR

STARTCHAR comma
ENCODING 44
SWIDTH 323 0
DWIDTH 4 0
BBX 2 4 0 -3
BITMAP
40
40
40
80
ENDCHAR

STARTCHAR minus
ENCODING 45
SWIDTH 667 0
DWIDTH 8 0
BBX 6 1 1 3
BITMAP
FC
ENDCHAR

STARTCHAR period
ENCODING 46
SWIDTH 323 0
DWIDTH 4 0
BBX 2 2 1 0
BITMAP
C0
C0
ENDCHAR

STARTCHAR slash
ENCODING 47
SWIDTH 531 0
DWIDTH 4 0
BBX 6 11 0 -3
BITMAP
0C
0C
08
18
10
30
20
60
40
C0
80
ENDCHAR

STARTCHAR zero
ENCODING 48
SWIDTH 469 0
DWIDTH 6 0
BBX 5 8 1 0
BITMAP
30
68
48
D8
D8
90
90
60
ENDCHAR

STARTCHAR one
ENCODING 49
SWIDTH 469 0
DWIDTH 6 0
BBX 4 8 1 0
BITMAP
10
30
E0
60
60
60
60
E0
ENDCHAR

STARTCHAR two
ENCODING 50
SWIDTH 469 0
DWIDTH 6 0
BBX 5 8 0 0
BITMAP
38
48
08
18
30
28
70
F0
ENDCHAR

STARTCHAR three
ENCODING 51
SWIDTH 469 0
DWIDTH 6 0
BBX 5 8 0 0
BITMAP
38
28
10
30
18
10
90
E0
ENDCHAR

STARTCHAR four
ENCODING 52
SWIDTH 469 0
DWIDTH 6 0
BBX 5 8 1 0
BITMAP
18
38
30
70
F8
F8
30
30
ENDCHAR

STARTCHAR five
ENCODING 53
SWIDTH 469 0
DWIDTH 6 0
BBX 5 8 0 0
BITMAP
38
38
20
70
70
10
90
E0
ENDCHAR

STARTCHAR six
ENCODING 54
SWIDTH 469 0
DWIDTH 6 0
BBX 5 8 1 0
BITMAP
08
30
40
70
D0
98
B0
60
ENDCHAR

STARTCHAR seven
ENCODING 55
SWIDTH 469 0
DWIDTH 6 0
BBX 5 8 1 0
BITMAP
F8
F8
90
10
20
20
40
C0
ENDCHAR

STARTCHAR eight
ENCODING 56
SWIDTH 469 0
DWIDTH 6 0
BBX 5 8 1 0
BITMAP
38
48
48
70
50
90
90
E0
ENDCHAR

STARTCHAR nine
ENCODING 57
SWIDTH 469 0
DWIDTH 6 0
BBX 5 8 0 0
BITMAP
38
68
48
78
18
30
60
80
ENDCHAR

STARTCHAR colon
ENCODING 58
SWIDTH 323 0
DWIDTH 4 0
BBX 2 5 1 0
BITMAP
40
40
00
C0
C0
ENDCHAR

STARTCHAR semicolon
ENCODING 59
SWIDTH 323 0
DWIDTH 4 0
BBX 3 8 0 -3
BITMAP
20
60
00
00
40
40
40
80
ENDCHAR

STARTCHAR less
ENCODING 60
SWIDTH 667 0
DWIDTH 8 0
BBX 6 6 1 1
BITMAP
04
3C
E0
E0
3C
04
ENDCHAR

STARTCHAR equal
ENCODING 61
SWIDTH 667 0
DWIDTH 8 0
BBX 6 3 1 2
BITMAP
FC
00
FC
ENDCHAR

STARTCHAR greater
ENCODING 62
SWIDTH 667 0
DWIDTH 8 0
BBX 6 6 1 1
BITMAP
C0
70
1C
1C
70
C0
ENDCHAR

STARTCHAR question
ENCODING 63
SWIDTH 427 0
DWIDTH 5 0
BBX 4 8 1 0
BITMAP
60
70
10
30
60
40
C0
C0
ENDCHAR

STARTCHAR at
ENCODING 64
SWIDTH 833 0
DWIDTH 10 0
BBX 10 11 0 -3
BITMAP
1F00
2080
4040
8F40
9A40
9640
B480
BF40
40C0
6180
1E00
ENDCHAR

STARTCHAR A
ENCODING 65
SWIDTH 719 0
DWIDTH 9 0
BBX 9 8 0 0
BITMAP
0300
0700
0B00
0B00
1F00
2300
4300
E780
ENDCHAR

STARTCHAR B
ENCODING 66
SWIDTH 656 0
DWIDTH 8 0
BBX 8 8 0 0
BITMAP
7E
32
23
3C
26
62
66
FC
ENDCHAR

STARTCHAR C
ENCODING 67
SWIDTH 729 0
DWIDTH 9 0
BBX 8 8 1 0
BITMAP
1F
63
C2
C0
C0
C0
42
3C
ENDCHAR

STARTCHAR D
ENCODING 68
SWIDTH 802 0
DWIDTH 10 0
BBX 9 8 0 0
BITMAP
7F00
3180
3180
2080
2180
6180
6300
FE00
ENDCHAR

STARTCHAR E
ENCODING 69
SWIDTH 656 0
DWIDTH 8 0
BBX 8 8 0 0
BITMAP
7F
31
30
3E
24
60
62
FE
ENDCHAR

STARTCHAR F
ENCODING 70
SWIDTH 604 0
DWIDTH 7 0
BBX 8 8 0 0
BITMAP
7F
31
30
3E
24
60
60
F0
ENDCHAR

STARTCHAR G
ENCODING 71
SWIDTH 802 0
DWIDTH 10 0
BBX 9 8 1 0
BITMAP
1F00
6100
4100
C000
C780
C300
6200
3F00
ENDCHAR

STARTCHAR H
ENCODING 72
SWIDTH 802 0
DWIDTH 10 0
BBX 10 8 0 0
BITMAP
79C0
3180
3180
3F80
2300
6300
6300
F780
ENDCHAR

STARTCHAR I
ENCODING 73
SWIDTH 375 0
DWIDTH 5 0
BBX 5 8 0 0
BITMAP
78
30
30
20
20
60
60
F0
ENDCHAR

STARTCHAR J
ENCODING 74
SWIDTH 354 0
DWIDTH 4 0
BBX 7 11 -1 -3
BITMAP
1E
0C
0C
08
08
08
18
18
10
D0
E0
ENDCHAR

STARTCHAR K
ENCODING 75
SWIDTH 740 0
DWIDTH 9 0
BBX 10 8 0 0
BITMAP
7BC0
3300
3C00
3800
2C00
6E00
6700
F380
ENDCHAR

STARTCHAR L
ENCODING 76
SWIDTH 604 0
DWIDTH 7 0
BBX 7 8 0 0
BITMAP
78
30
30
20
20
60
62
FE
ENDCHAR

STARTCHAR M
ENCODING 77
SWIDTH 896 0
DWIDTH 11 0
BBX 12 8 0 0
BITMAP
78F0
38C0
39C0
39C0
2AC0
4F80
4D80
EBC0
ENDCHAR

STARTCHAR N
ENCODING 78
SWIDTH 771 0
DWIDTH 9 0
BBX 10 8 0 0
BITMAP
71C0
3080
5880
5C80
4D00
4700
4700
E300
ENDCHAR

STARTCHAR O
ENCODING 79
SWIDTH 823 0
DWIDTH 10 0
BBX 9 8 1 0
BITMAP
3E00
6300
C100
C180
C180
C300
4700
3C00
ENDCHAR

STARTCHAR P
ENCODING 80
SWIDTH 635 0
DWIDTH 8 0
BBX 8 8 0 0
BITMAP
7E
33
33
22
2E
60
60
F0
ENDCHAR

STARTCHAR Q
ENCODING 81
SWIDTH 823 0
DWIDTH 10 0
BBX 9 9 1 -1
BITMAP
3E00
6300
C100
C180
C180
C300
4600
3C00
0F80
ENDCHAR

STARTCHAR R
ENCODING 82
SWIDTH 688 0
DWIDTH 8 0
BBX 8 8 0 0
BITMAP
7E
32
32
24
3C
6C
66
F3
ENDCHAR

STARTCHAR S
ENCODING 83
SWIDTH 521 0
DWIDTH 6 0
BBX 6 8 0 0
BITMAP
3C
64
64
30
18
88
88
F0
ENDCHAR

STARTCHAR T
ENCODING 84
SWIDTH 698 0
DWIDTH 8 0
BBX 8 8 1 0
BITMAP
FF
99
18
30
30
30
30
78
ENDCHAR

STARTCHAR U
ENCODING 85
SWIDTH 750 0
DWIDTH 9 0
BBX 9 8 1 0
BITMAP
F380
6100
4200
4200
C200
C200
C400
7800
ENDCHAR

STARTCHAR V
ENCODING 86
SWIDTH 677 0
DWIDTH 8 0
BBX 8 8 1 0
BITMAP
E3
42
44
4C
58
70
60
40
ENDCHAR

STARTCHAR W
ENCODING 87
SWIDTH 1063 0
DWIDTH 13 0
BBX 12 8 2 0
BITMAP
F730
4230
4660
4E40
5E80
7700
6600
C600
ENDCHAR

STARTCHAR X
ENCODING 88
SWIDTH 760 0
DWIDTH 9 0
BBX 10 8 0 0
BITMAP
7BC0
3180
1A00
1C00
0E00
3600
6300
E780
ENDCHAR

STARTCHAR Y
ENCODING 89
SWIDTH 667 0
DWIDTH 8 0
BBX 8 8 1 0
BITMAP
E7
E2
64
78
30
30
30
78
ENDCHAR

STARTCHAR Z
ENCODING 90
SWIDTH 667 0
DWIDTH 8 0
BBX 8 8 0 0
BITMAP
3F
27
0E
1C
38
70
E1
FE
ENDCHAR

STARTCHAR bracketleft
ENCODING 91
SWIDTH 365 0
DWIDTH 4 0
BBX 5 11 1 -3
BITMAP
38
60
60
60
60
40
C0
C0
C0
C0
E0
ENDCHAR

STARTCHAR backslash
ENCODING 92
SWIDTH 302 0
DWIDTH 4 0
BBX 3 8 1 0
BITMAP
C0
C0
C0
40
40
60
60
60
ENDCHAR

STARTCHAR bracketright
ENCODING 93
SWIDTH 365 0
DWIDTH 4 0
BBX 5 11 0 -3
BITMAP
38
18
18
18
10
30
30
30
30
20
E0
ENDCHAR

STARTCHAR asciicircum
ENCODING 94
SWIDTH 573 0
DWIDTH 7 0
BBX 6 4 1 4
BITMAP
20
70
58
8C
ENDCHAR

STARTCHAR underscore
ENCODING 95
SWIDTH 500 0
DWIDTH 6 0
BBX 6 1 0 -3
BITMAP
FC
ENDCHAR

STARTCHAR quoteleft
ENCODING 96
SWIDTH 323 0
DWIDTH 4 0
BBX 2 4 2 4
BITMAP
40
80
80
C0
ENDCHAR

STARTCHAR a
ENCODING 97
SWIDTH 458 0
DWIDTH 5 0
BBX 5 5 0 0
BITMAP
38
50
90
B0
D8
ENDCHAR

STARTCHAR b
ENCODING 98
SWIDTH 448 0
DWIDTH 5 0
BBX 4 8 1 0
BITMAP
60
40
40
50
F0
D0
90
E0
ENDCHAR

STARTCHAR c
ENCODING 99
SWIDTH 333 0
DWIDTH 4 0
BBX 4 5 0 0
BITMAP
30
50
80
A0
E0
ENDCHAR

STARTCHAR d
ENCODING 100
SWIDTH 448 0
DWIDTH 5 0
BBX 5 8 0 0
BITMAP
08
18
18
38
50
90
F8
D0
ENDCHAR

STARTCHAR e
ENCODING 101
SWIDTH 375 0
DWIDTH 5 0
BBX 4 5 0 0
BITMAP
30
70
C0
90
E0
ENDCHAR

STARTCHAR f
ENCODING 102
SWIDTH 271 0
DWIDTH 3 0
BBX 8 11 -1 -3
BITMAP
07
0B
08
1C
08
18
18
10
10
90
E0
ENDCHAR

STARTCHAR g
ENCODING 103
SWIDTH 438 0
DWIDTH 5 0
BBX 6 8 0 -3
BITMAP
1C
2C
2C
38
20
70
98
F8
ENDCHAR

STARTCHAR h
ENCODING 104
SWIDTH 500 0
DWIDTH 6 0
BBX 6 8 0 0
BITMAP
60
60
40
58
78
D8
D4
D8
ENDCHAR

STARTCHAR i
ENCODING 105
SWIDTH 292 0
DWIDTH 4 0
BBX 4 8 1 0
BITMAP
10
10
00
20
E0
20
70
60
ENDCHAR

STARTCHAR j
ENCODING 106
SWIDTH 271 0
DWIDTH 3 0
BBX 5 11 -1 -3
BITMAP
08
08
00
18
38
10
10
10
30
A0
E0
ENDCHAR

STARTCHAR k
ENCODING 107
SWIDTH 500 0
DWIDTH 6 0
BBX 6 8 1 0
BITMAP
60
60
40
78
68
F8
F4
F8
ENDCHAR

STARTCHAR l
ENCODING 108
SWIDTH 271 0
DWIDTH 3 0
BBX 3 8 1 0
BITMAP
60
40
40
40
40
C0
C0
C0
ENDCHAR

STARTCHAR m
ENCODING 109
SWIDTH 750 0
DWIDTH 9 0
BBX 8 5 0 0
BITMAP
5B
ED
6B
5B
DB
ENDCHAR

STARTCHAR n
ENCODING 110
SWIDTH 510 0
DWIDTH 6 0
BBX 6 5 0 0
BITMAP
58
E8
58
5C
D8
ENDCHAR

STARTCHAR o
ENCODING 111
SWIDTH 448 0
DWIDTH 5 0
BBX 5 5 0 0
BITMAP
30
58
90
90
E0
ENDCHAR

STARTCHAR p
ENCODING 112
SWIDTH 490 0
DWIDTH 6 0
BBX 6 8 0 -3
BITMAP
3C
74
24
2C
38
60
60
F0
ENDCHAR

STARTCHAR q
ENCODING 113
SWIDTH 448 0
DWIDTH 5 0
BBX 5 8 0 -3
BITMAP
38
50
B0
B0
F0
30
60
70
ENDCHAR

STARTCHAR r
ENCODING 114
SWIDTH 333 0
DWIDTH 4 0
BBX 4 5 0 0
BITMAP
50
F0
60
40
C0
ENDCHAR

STARTCHAR s
ENCODING 115
SWIDTH 344 0
DWIDTH 4 0
BBX 4 5 0 0
BITMAP
70
50
60
A0
E0
ENDCHAR

STARTCHAR t
ENCODING 116
SWIDTH 302 0
DWIDTH 4 0
BBX 3 6 1 0
BITMAP
20
E0
40
C0
A0
C0
ENDCHAR

STARTCHAR u
ENCODING 117
SWIDTH 500 0
DWIDTH 6 0
BBX 6 5 0 0
BITMAP
C8
58
58
F4
D8
ENDCHAR

STARTCHAR v
ENCODING 118
SWIDTH 427 0
DWIDTH 5 0
BBX 6 5 1 0
BITMAP
2C
E4
28
28
70
ENDCHAR

STARTCHAR w
ENCODING 119
SWIDTH 667 0
DWIDTH 8 0
BBX 8 5 0 0
BITMAP
4B
D9
5A
74
F8
ENDCHAR

STARTCHAR x
ENCODING 120
SWIDTH 500 0
DWIDTH 6 0
BBX 6 5 0 0
BITMAP
68
78
20
D4
98
ENDCHAR

STARTCHAR y
ENCODING 121
SWIDTH 458 0
DWIDTH 5 0
BBX 6 8 0 -3
BITMAP
6C
2C
28
30
30
20
60
E0
ENDCHAR

STARTCHAR z
ENCODING 122
SWIDTH 490 0
DWIDTH 6 0
BBX 5 5 0 0
BITMAP
68
38
30
E0
F8
ENDCHAR

STARTCHAR braceleft
ENCODING 123
SWIDTH 344 0
DWIDTH 4 0
BBX 5 11 1 -3
BITMAP
18
30
20
20
60
80
40
40
C0
80
C0
ENDCHAR

STARTCHAR bar
ENCODING 124
SWIDTH 566 0
DWIDTH 8 0
BBX 4 11 2 -3
BITMAP
30
30
30
30
60
60
60
60
C0
C0
C0
ENDCHAR

STARTCHAR braceright
ENCODING 125
SWIDTH 344 0
DWIDTH 4 0
BBX 5 11 0 -3
BITMAP
18
08
18
10
10
18
20
20
20
60
C0
ENDCHAR

STARTCHAR asciitilde
ENCODING 126
SWIDTH 573 0
DWIDTH 7 0
BBX 6 3 1 4
BITMAP
64
FC
98
ENDCHAR

STARTCHAR exclamdown
ENCODING 161
SWIDTH 323 0
DWIDTH 4 0
BBX 3 8 0 -3
BITMAP
60
20
40
40
40
40
C0
C0
ENDCHAR

STARTCHAR cent
ENCODING 162
SWIDTH 333 0
DWIDTH 4 0
BBX 4 11 0 -3
BITMAP
10
10
10
70
60
A0
E0
E0
40
40
80
ENDCHAR

STARTCHAR sterling
ENCODING 163
SWIDTH 760 0
DWIDTH 9 0
BBX 9 11 0 -3
BITMAP
0380
0680
0400
0C00
1C00
1800
1800
7C00
3200
FA00
DE00
ENDCHAR

STARTCHAR currency
ENCODING 164
SWIDTH 667 0
DWIDTH 8 0
BBX 6 6 1 0
BITMAP
B4
78
CC
CC
78
B4
ENDCHAR

STARTCHAR yen
ENCODING 165
SWIDTH 500 0
DWIDTH 6 0
BBX 7 8 0 0
BITMAP
76
24
FE
FC
30
20
60
F0
ENDCHAR

STARTCHAR brokenbar
ENCODING 166
SWIDTH 566 0
DWIDTH 8 0
BBX 4 11 2 -3
BITMAP
30
30
30
30
60
00
60
60
C0
C0
C0
ENDCHAR

STARTCHAR section
ENCODING 167
SWIDTH 448 0
DWIDTH 5 0
BBX 7 11 0 -3
BITMAP
0E
12
30
30
38
28
28
18
18
90
E0
ENDCHAR

STARTCHAR dieresis
ENCODING 168
SWIDTH 333 0
DWIDTH 4 0
BBX 4 2 1 6
BITMAP
F0
F0
ENDCHAR

STARTCHAR copyright
ENCODING 169
SWIDTH 750 0
DWIDTH 9 0
BBX 9 8 0 0
BITMAP
3E00
7F00
B280
B080
B080
B180
7F00
3E00
ENDCHAR

STARTCHAR ordfeminine
ENCODING 170
SWIDTH 354 0
DWIDTH 4 0
BBX 3 4 1 4
BITMAP
60
A0
A0
E0
ENDCHAR

STARTCHAR guillemotleft
ENCODING 171
SWIDTH 427 0
DWIDTH 5 0
BBX 5 4 0 1
BITMAP
50
50
58
A0
ENDCHAR

STARTCHAR logicalnot
ENCODING 172
SWIDTH 667 0
DWIDTH 8 0
BBX 6 4 1 2
BITMAP
FC
04
04
04
ENDCHAR

STARTCHAR hyphen
ENCODING 173
SWIDTH 417 0
DWIDTH 5 0
BBX 4 2 0 2
BITMAP
F0
F0
ENDCHAR

STARTCHAR registered
ENCODING 174
SWIDTH 750 0
DWIDTH 9 0
BBX 9 8 0 0
BITMAP
3E00
7F00
B680
B680
BC80
B480
7F00
3E00
ENDCHAR

STARTCHAR macron
ENCODING 175
SWIDTH 333 0
DWIDTH 4 0
BBX 4 1 1 7
BITMAP
F0
ENDCHAR

STARTCHAR degree
ENCODING 176
SWIDTH 396 0
DWIDTH 5 0
BBX 4 4 1 4
BITMAP
60
90
90
60
ENDCHAR

STARTCHAR plusminus
ENCODING 177
SWIDTH 668 0
DWIDTH 8 0
BBX 7 9 0 -1
BITMAP
10
10
10
FE
10
10
10
00
FE
ENDCHAR

STARTCHAR twosuperior
ENCODING 178
SWIDTH 292 0
DWIDTH 3 0
BBX 3 5 -1 3
BITMAP
60
E0
20
60
E0
ENDCHAR

STARTCHAR threesuperior
ENCODING 179
SWIDTH 292 0
DWIDTH 3 0
BBX 3 5 -1 3
BITMAP
60
60
60
20
C0
ENDCHAR

STARTCHAR acute
ENCODING 180
SWIDTH 333 0
DWIDTH 4 0
BBX 2 2 2 6
BITMAP
40
80
ENDCHAR

STARTCHAR mu
ENCODING 181
SWIDTH 573 0
DWIDTH 7 0
BBX 8 8 0 -3
BITMAP
36
36
6C
6D
76
40
80
80
ENDCHAR

STARTCHAR paragraph
ENCODING 182
SWIDTH 542 0
DWIDTH 6 0
BBX 7 11 0 -3
BITMAP
3E
7C
F4
F4
F8
E8
28
30
70
50
70
ENDCHAR

STARTCHAR periodcentered
ENCODING 183
SWIDTH 323 0
DWIDTH 4 0
BBX 2 2 1 3
BITMAP
C0
C0
ENDCHAR

STARTCHAR cedilla
ENCODING 184
SWIDTH 333 0
DWIDTH 4 0
BBX 2 3 0 -3
BITMAP
40
40
80
ENDCHAR

STARTCHAR onesuperior
ENCODING 185
SWIDTH 292 0
DWIDTH 3 0
BBX 2 5 -2 3
BITMAP
40
C0
40
40
C0
ENDCHAR

STARTCHAR ordmasculine
ENCODING 186
SWIDTH 333 0
DWIDTH 4 0
BBX 3 4 1 4
BITMAP
60
A0
A0
C0
ENDCHAR

STARTCHAR guillemotright
ENCODING 187
SWIDTH 427 0
DWIDTH 5 0
BBX 5 5 0 0
BITMAP
68
70
90
90
40
ENDCHAR

STARTCHAR onequarter
ENCODING 188
SWIDTH 854 0
DWIDTH 9 0
BBX 8 8 1 0
BITMAP
46
C4
48
49
D3
36
27
42
ENDCHAR

STARTCHAR onehalf
ENCODING 189
SWIDTH 844 0
DWIDTH 9 0
BBX 8 8 1 0
BITMAP
46
C4
48
4B
D7
31
23
47
ENDCHAR

STARTCHAR threequarters
ENCODING 190
SWIDTH 844 0
DWIDTH 9 0
BBX 9 8 2 0
BITMAP
6300
6200
6400
2480
C980
1B00
1380
2100
ENDCHAR

STARTCHAR questiondown
ENCODING 191
SWIDTH 427 0
DWIDTH 5 0
BBX 4 9 0 -3
BITMAP
30
30
20
60
E0
80
80
E0
60
ENDCHAR

STARTCHAR Agrave
ENCODING 192
SWIDTH 719 0
DWIDTH 9 0
BBX 9 11 0 0
BITMAP
0300
0100
0000
0300
0700
0B00
0B00
1F00
2300
4300
E780
ENDCHAR

STARTCHAR Aacute
ENCODING 193
SWIDTH 719 0
DWIDTH 9 0
BBX 9 11 0 0
BITMAP
0100
0200
0000
0300
0700
0B00
0B00
1F00
2300
4300
E780
ENDCHAR

STARTCHAR Acircumflex
ENCODING 194
SWIDTH 719 0
DWIDTH 9 0
BBX 9 11 0 0
BITMAP
0300
0680
0000
0300
0700
0B00
0B00
1F00
2300
4300
E780
ENDCHAR

STARTCHAR Atilde
ENCODING 195
SWIDTH 719 0
DWIDTH 9 0
BBX 9 11 0 0
BITMAP
0780
0780
0000
0300
0700
0B00
0B00
1F00
2300
4300
E780
ENDCHAR

STARTCHAR Adieresis
ENCODING 196
SWIDTH 719 0
DWIDTH 9 0
BBX 9 11 0 0
BITMAP
0780
0780
0000
0300
0700
0B00
0B00
1F00
2300
4300
E780
ENDCHAR

STARTCHAR Aring
ENCODING 197
SWIDTH 719 0
DWIDTH 9 0
BBX 9 12 0 0
BITMAP
0380
0280
0380
0000
0300
0700
0B00
0B00
1F00
2300
4300
E780
ENDCHAR

STARTCHAR AE
ENCODING 198
SWIDTH 958 0
DWIDTH 11 0
BBX 12 8 0 0
BITMAP
07F0
0310
0700
0BE0
1E20
2200
4630
EFE0
ENDCHAR

STARTCHAR Ccedilla
ENCODING 199
SWIDTH 729 0
DWIDTH 9 0
BBX 8 11 1 -3
BITMAP
1F
63
C2
C0
C0
C0
42
3C
10
10
20
ENDCHAR

STARTCHAR Egrave
ENCODING 200
SWIDTH 656 0
DWIDTH 8 0
BBX 8 11 0 0
BITMAP
06
02
00
7F
31
30
3E
24
60
62
FE
ENDCHAR

STARTCHAR Eacute
ENCODING 201
SWIDTH 656 0
DWIDTH 8 0
BBX 8 11 0 0
BITMAP
02
04
00
7F
31
30
3E
24
60
62
FE
ENDCHAR

STARTCHAR Ecircumflex
ENCODING 202
SWIDTH 656 0
DWIDTH 8 0
BBX 8 11 0 0
BITMAP
06
0D
00
7F
31
30
3E
24
60
62
FE
ENDCHAR

STARTCHAR Edieresis
ENCODING 203
SWIDTH 656 0
DWIDTH 8 0
BBX 8 11 0 0
BITMAP
0F
0F
00
7F
31
30
3E
24
60
62
FE
ENDCHAR

STARTCHAR Igrave
ENCODING 204
SWIDTH 375 0
DWIDTH 5 0
BBX 5 11 0 0
BITMAP
18
08
00
78
30
30
20
20
60
60
F0
ENDCHAR

STARTCHAR Iacute
ENCODING 205
SWIDTH 375 0
DWIDTH 5 0
BBX 5 11 0 0
BITMAP
08
10
00
78
30
30
20
20
60
60
F0
ENDCHAR

STARTCHAR Icircumflex
ENCODING 206
SWIDTH 375 0
DWIDTH 5 0
BBX 6 11 0 0
BITMAP
18
34
00
78
30
30
20
20
60
60
F0
ENDCHAR

STARTCHAR Idieresis
ENCODING 207
SWIDTH 375 0
DWIDTH 5 0
BBX 6 11 0 0
BITMAP
3C
3C
00
78
30
30
20
20
60
60
F0
ENDCHAR

STARTCHAR Eth
ENCODING 208
SWIDTH 802 0
DWIDTH 10 0
BBX 9 8 0 0
BITMAP
7F00
3180
3180
F880
2180
6180
6300
FE00
ENDCHAR

STARTCHAR Ntilde
ENCODING 209
SWIDTH 771 0
DWIDTH 9 0
BBX 10 11 0 0
BITMAP
0F00
0F00
0000
71C0
3080
5880
5C80
4D00
4700
4700
E300
ENDCHAR

STARTCHAR Ograve
ENCODING 210
SWIDTH 823 0
DWIDTH 10 0
BBX 9 11 1 0
BITMAP
0600
0200
0000
3E00
6300
C100
C180
C180
C300
4700
3C00
ENDCHAR

STARTCHAR Oacute
ENCODING 211
SWIDTH 823 0
DWIDTH 10 0
BBX 9 11 1 0
BITMAP
0200
0400
0000
3E00
6300
C100
C180
C180
C300
4700
3C00
ENDCHAR

STARTCHAR Ocircumflex
ENCODING 212
SWIDTH 823 0
DWIDTH 10 0
BBX 9 11 1 0
BITMAP
0600
0D00
0000
3E00
6300
C100
C180
C180
C300
4700
3C00
ENDCHAR

STARTCHAR Otilde
ENCODING 213
SWIDTH 823 0
DWIDTH 10 0
BBX 9 11 1 0
BITMAP
0F00
0F00
0000
3E00
6300
C100
C180
C180
C300
4700
3C00
ENDCHAR

STARTCHAR Odieresis
ENCODING 214
SWIDTH 823 0
DWIDTH 10 0
BBX 9 11 1 0
BITMAP
0F00
0F00
0000
3E00
6300
C100
C180
C180
C300
4700
3C00
ENDCHAR

STARTCHAR multiply
ENCODING 215
SWIDTH 667 0
DWIDTH 8 0
BBX 6 5 1 1
BITMAP
CC
78
30
78
CC
ENDCHAR

STARTCHAR Oslash
ENCODING 216
SWIDTH 823 0
DWIDTH 10 0
BBX 9 8 1 0
BITMAP
3F80
6300
C700
CD80
C980
D300
6700
7C00
ENDCHAR

STARTCHAR Ugrave
ENCODING 217
SWIDTH 750 0
DWIDTH 9 0
BBX 9 11 1 0
BITMAP
0C00
0400
0000
F380
6100
4200
4200
C200
C200
C400
7800
ENDCHAR

STARTCHAR Uacute
ENCODING 218
SWIDTH 750 0
DWIDTH 9 0
BBX 9 11 1 0
BITMAP
0400
0800
0000
F380
6100
4200
4200
C200
C200
C400
7800
ENDCHAR

STARTCHAR Ucircumflex
ENCODING 219
SWIDTH 750 0
DWIDTH 9 0
BBX 9 11 1 0
BITMAP
0C00
1A00
0000
F380
6100
4200
4200
C200
C200
C400
7800
ENDCHAR

STARTCHAR Udieresis
ENCODING 220
SWIDTH 750 0
DWIDTH 9 0
BBX 9 11 1 0
BITMAP
1E00
1E00
0000
F380
6100
4200
4200
C200
C200
C400
7800
ENDCHAR

STARTCHAR Yacute
ENCODING 221
SWIDTH 667 0
DWIDTH 8 0
BBX 8 11 1 0
BITMAP
04
08
00
E7
E2
64
78
30
30
30
78
ENDCHAR

STARTCHAR Thorn
ENCODING 222
SWIDTH 635 0
DWIDTH 8 0
BBX 8 8 0 0
BITMAP
78
30
3E
32
23
66
6C
F0
ENDCHAR

STARTCHAR germandbls
ENCODING 223
SWIDTH 490 0
DWIDTH 6 0
BBX 8 11 -1 -3
BITMAP
07
09
09
1E
1A
1B
12
14
10
B0
E0
ENDCHAR

STARTCHAR agrave
ENCODING 224
SWIDTH 458 0
DWIDTH 5 0
BBX 5 8 0 0
BITMAP
30
10
00
38
50
90
B0
D8
ENDCHAR

STARTCHAR aacute
ENCODING 225
SWIDTH 458 0
DWIDTH 5 0
BBX 5 8 0 0
BITMAP
10
20
00
38
50
90
B0
D8
ENDCHAR

STARTCHAR acircumflex
ENCODING 226
SWIDTH 458 0
DWIDTH 5 0
BBX 5 8 0 0
BITMAP
30
68
00
38
50
90
B0
D8
ENDCHAR

STARTCHAR atilde
ENCODING 227
SWIDTH 458 0
DWIDTH 5 0
BBX 5 8 0 0
BITMAP
78
78
00
38
50
90
B0
D8
ENDCHAR

STARTCHAR adieresis
ENCODING 228
SWIDTH 458 0
DWIDTH 5 0
BBX 5 8 0 0
BITMAP
78
78
00
38
50
90
B0
D8
ENDCHAR

STARTCHAR aring
ENCODING 229
SWIDTH 458 0
DWIDTH 5 0
BBX 5 9 0 0
BITMAP
38
28
38
00
38
50
90
B0
D8
ENDCHAR

STARTCHAR ae
ENCODING 230
SWIDTH 615 0
DWIDTH 7 0
BBX 7 5 0 0
BITMAP
3E
5E
B0
F2
FC
ENDCHAR

STARTCHAR ccedilla
ENCODING 231
SWIDTH 333 0
DWIDTH 4 0
BBX 4 8 0 -3
BITMAP
30
50
80
A0
E0
40
40
80
ENDCHAR

STARTCHAR egrave
ENCODING 232
SWIDTH 375 0
DWIDTH 5 0
BBX 4 8 0 0
BITMAP
60
20
00
30
70
C0
90
E0
ENDCHAR

STARTCHAR eacute
ENCODING 233
SWIDTH 375 0
DWIDTH 5 0
BBX 4 8 0 0
BITMAP
10
20
00
30
70
C0
90
E0
ENDCHAR

STARTCHAR ecircumflex
ENCODING 234
SWIDTH 375 0
DWIDTH 5 0
BBX 5 8 0 0
BITMAP
30
68
00
30
70
C0
90
E0
ENDCHAR

STARTCHAR edieresis
ENCODING 235
SWIDTH 375 0
DWIDTH 5 0
BBX 5 8 0 0
BITMAP
78
78
00
30
70
C0
90
E0
ENDCHAR

STARTCHAR igrave
ENCODING 236
SWIDTH 292 0
DWIDTH 4 0
BBX 4 8 1 0
BITMAP
30
10
00
20
E0
20
70
60
ENDCHAR

STARTCHAR iacute
ENCODING 237
SWIDTH 292 0
DWIDTH 4 0
BBX 4 8 1 0
BITMAP
10
20
00
20
E0
20
70
60
ENDCHAR

STARTCHAR icircumflex
ENCODING 238
SWIDTH 292 0
DWIDTH 4 0
BBX 5 8 1 0
BITMAP
30
68
00
20
E0
20
70
60
ENDCHAR

STARTCHAR idieresis
ENCODING 239
SWIDTH 292 0
DWIDTH 4 0
BBX 5 8 1 0
BITMAP
78
78
00
20
E0
20
70
60
ENDCHAR

STARTCHAR eth
ENCODING 240
SWIDTH 417 0
DWIDTH 5 0
BBX 5 8 0 0
BITMAP
38
18
38
38
58
D8
D0
E0
ENDCHAR

STARTCHAR ntilde
ENCODING 241
SWIDTH 510 0
DWIDTH 6 0
BBX 6 8 0 0
BITMAP
3C
3C
00
58
E8
58
5C
D8
ENDCHAR

STARTCHAR ograve
ENCODING 242
SWIDTH 448 0
DWIDTH 5 0
BBX 5 8 0 0
BITMAP
30
10
00
30
58
90
90
E0
ENDCHAR

STARTCHAR oacute
ENCODING 243
SWIDTH 448 0
DWIDTH 5 0
BBX 5 8 0 0
BITMAP
10
20
00
30
58
90
90
E0
ENDCHAR

STARTCHAR ocircumflex
ENCODING 244
SWIDTH 448 0
DWIDTH 5 0
BBX 5 8 0 0
BITMAP
30
68
00
30
58
90
90
E0
ENDCHAR

STARTCHAR otilde
ENCODING 245
SWIDTH 448 0
DWIDTH 5 0
BBX 5 8 0 0
BITMAP
78
78
00
30
58
90
90
E0
ENDCHAR

STARTCHAR odieresis
ENCODING 246
SWIDTH 448 0
DWIDTH 5 0
BBX 5 8 0 0
BITMAP
78
78
00
30
58
90
90
E0
ENDCHAR

STARTCHAR divide
ENCODING 247
SWIDTH 668 0
DWIDTH 8 0
BBX 6 7 1 1
BITMAP
10
10
00
FC
00
10
10
ENDCHAR

STARTCHAR oslash
ENCODING 248
SWIDTH 448 0
DWIDTH 5 0
BBX 5 5 0 0
BITMAP
38
58
B0
D0
E0
ENDCHAR

STARTCHAR ugrave
ENCODING 249
SWIDTH 500 0
DWIDTH 6 0
BBX 6 8 0 0
BITMAP
30
10
00
C8
58
58
F4
D8
ENDCHAR

STARTCHAR uacute
ENCODING 250
SWIDTH 500 0
DWIDTH 6 0
BBX 6 8 0 0
BITMAP
08
10
00
C8
58
58
F4
D8
ENDCHAR

STARTCHAR ucircumflex
ENCODING 251
SWIDTH 500 0
DWIDTH 6 0
BBX 6 8 0 0
BITMAP
18
34
00
C8
58
58
F4
D8
ENDCHAR

STARTCHAR udieresis
ENCODING 252
SWIDTH 500 0
DWIDTH 6 0
BBX 6 8 0 0
BITMAP
3C
3C
00
C8
58
58
F4
D8
ENDCHAR

STARTCHAR yacute
ENCODING 253
SWIDTH 458 0
DWIDTH 5 0
BBX 6 11 0 -3
BITMAP
08
10
00
6C
2C
28
30
30
20
60
E0
ENDCHAR

STARTCHAR thorn
ENCODING 254
SWIDTH 490 0
DWIDTH 6 0
BBX 6 11 0 -3
BITMAP
10
70
10
3C
34
24
2C
38
60
60
F0
ENDCHAR

STARTCHAR ydieresis
ENCODING 255
SWIDTH 458 0
DWIDTH 5 0
BBX 6 11 0 -3
BITMAP
3C
3C
00
6C
2C
28
30
30
20
60
E0
ENDCHAR
ENDFONT
